<?xml version="1.0" encoding="UTF-8"?>
<svg width="600" height="400" viewBox="0 0 600 400" fill="none" xmlns="http://www.w3.org/2000/svg">
  <!-- Background Elements -->
  <circle cx="300" cy="200" r="180" fill="#4f46e5" opacity="0.05"/>
  <circle cx="300" cy="200" r="150" fill="#0ea5e9" opacity="0.05"/>
  
  <!-- Team Members Group -->
  <circle cx="300" cy="180" r="70" fill="#ffffff" stroke="#e2e8f0" stroke-width="2"/>
  <circle cx="200" cy="250" r="50" fill="#ffffff" stroke="#e2e8f0" stroke-width="2"/>
  <circle cx="400" cy="250" r="50" fill="#ffffff" stroke="#e2e8f0" stroke-width="2"/>
  
  <!-- Central Person (Leader) -->
  <circle cx="300" cy="150" r="25" fill="#4f46e5" opacity="0.2"/>
  <rect x="285" y="180" width="30" height="40" rx="10" fill="#4f46e5" opacity="0.2"/>
  
  <!-- Left Person -->
  <circle cx="200" cy="230" r="18" fill="#0ea5e9" opacity="0.2"/>
  <rect x="190" y="250" width="20" height="30" rx="8" fill="#0ea5e9" opacity="0.2"/>
  
  <!-- Right Person -->
  <circle cx="400" cy="230" r="18" fill="#8b5cf6" opacity="0.2"/>
  <rect x="390" y="250" width="20" height="30" rx="8" fill="#8b5cf6" opacity="0.2"/>
  
  <!-- Connection Lines -->
  <line x1="240" y1="230" x2="275" y2="180" stroke="#e2e8f0" stroke-width="2" stroke-dasharray="5,5"/>
  <line x1="360" y1="180" x2="385" y2="230" stroke="#e2e8f0" stroke-width="2" stroke-dasharray="5,5"/>
  
  <!-- Social Media Icons Around -->
  <!-- Instagram -->
  <rect x="150" y="150" width="30" height="30" rx="8" fill="#4f46e5" opacity="0.7"/>
  <circle cx="165" cy="165" r="7" stroke="#ffffff" stroke-width="1.5" fill="none"/>
  <circle cx="172" cy="158" r="2" fill="#ffffff"/>
  
  <!-- Twitter -->
  <rect x="420" y="150" width="30" height="30" rx="8" fill="#0ea5e9" opacity="0.7"/>
  <path d="M430,160 L440,160 L435,170 L445,170" stroke="#ffffff" stroke-width="1.5" fill="none"/>
  
  <!-- Facebook -->
  <rect x="150" y="320" width="30" height="30" rx="8" fill="#8b5cf6" opacity="0.7"/>
  <path d="M165,325 L165,345 M158,332 L172,332" stroke="#ffffff" stroke-width="1.5"/>
  
  <!-- LinkedIn -->
  <rect x="420" y="320" width="30" height="30" rx="8" fill="#4f46e5" opacity="0.7"/>
  <rect x="430" y="330" width="10" height="10" stroke="#ffffff" stroke-width="1.5" fill="none"/>
  
  <!-- Growth Charts -->
  <rect x="220" y="320" width="160" height="60" rx="8" fill="#ffffff" stroke="#e2e8f0" stroke-width="2"/>
  <polyline points="230,360 250,350 270,355 290,335 310,325 330,340 350,330 370,320" stroke="#4f46e5" stroke-width="2" fill="none"/>
  <circle cx="230" cy="360" r="3" fill="#4f46e5"/>
  <circle cx="250" cy="350" r="3" fill="#4f46e5"/>
  <circle cx="270" cy="355" r="3" fill="#4f46e5"/>
  <circle cx="290" cy="335" r="3" fill="#4f46e5"/>
  <circle cx="310" cy="325" r="3" fill="#4f46e5"/>
  <circle cx="330" cy="340" r="3" fill="#4f46e5"/>
  <circle cx="350" cy="330" r="3" fill="#4f46e5"/>
  <circle cx="370" cy="320" r="3" fill="#4f46e5"/>
  
  <!-- Decorative Elements -->
  <circle cx="120" cy="120" r="10" fill="#4f46e5" opacity="0.2"/>
  <circle cx="480" cy="120" r="10" fill="#0ea5e9" opacity="0.2"/>
  <circle cx="120" cy="280" r="10" fill="#8b5cf6" opacity="0.2"/>
  <circle cx="480" cy="280" r="10" fill="#4f46e5" opacity="0.2"/>
  
  <!-- Mission Text Placeholder -->
  <rect x="250" y="80" width="100" height="10" rx="5" fill="#4f46e5" opacity="0.8"/>
  <rect x="220" y="100" width="160" height="5" rx="2.5" fill="#e2e8f0"/>
  <rect x="220" y="110" width="160" height="5" rx="2.5" fill="#e2e8f0"/>
  <rect x="220" y="120" width="160" height="5" rx="2.5" fill="#e2e8f0"/>
</svg>
