<?xml version="1.0" encoding="UTF-8"?>
<svg width="600" height="400" viewBox="0 0 600 400" fill="none" xmlns="http://www.w3.org/2000/svg">
  <!-- Dashboard Background -->
  <rect x="50" y="50" width="500" height="300" rx="10" fill="#ffffff" stroke="#e2e8f0" stroke-width="2"/>
  
  <!-- Header Bar -->
  <rect x="50" y="50" width="500" height="40" rx="10" fill="#4f46e5" stroke="none"/>
  <circle cx="75" cy="70" r="5" fill="#ffffff"/>
  <circle cx="95" cy="70" r="5" fill="#ffffff"/>
  <circle cx="115" cy="70" r="5" fill="#ffffff"/>
  
  <!-- Left Sidebar -->
  <rect x="50" y="90" width="100" height="260" fill="#f8fafc" stroke="none"/>
  
  <!-- Sidebar Menu Items -->
  <rect x="65" y="110" width="70" height="10" rx="5" fill="#4f46e5" opacity="0.8"/>
  <rect x="65" y="130" width="70" height="10" rx="5" fill="#e2e8f0"/>
  <rect x="65" y="150" width="70" height="10" rx="5" fill="#e2e8f0"/>
  <rect x="65" y="170" width="70" height="10" rx="5" fill="#e2e8f0"/>
  <rect x="65" y="190" width="70" height="10" rx="5" fill="#e2e8f0"/>
  <rect x="65" y="210" width="70" height="10" rx="5" fill="#e2e8f0"/>
  
  <!-- Main Content Area -->
  <rect x="160" y="100" width="380" height="240" rx="5" fill="#ffffff" stroke="#e2e8f0" stroke-width="1"/>
  
  <!-- Graph Section -->
  <rect x="170" y="110" width="360" height="100" rx="5" fill="#f8fafc" stroke="#e2e8f0" stroke-width="1"/>
  
  <!-- Graph Lines -->
  <polyline points="180,190 220,170 260,180 300,150 340,130 380,160 420,140 460,120 500,110" stroke="#4f46e5" stroke-width="3" fill="none"/>
  <polyline points="180,190 220,180 260,190 300,170 340,160 380,180 420,170 460,150 500,140" stroke="#0ea5e9" stroke-width="3" fill="none"/>
  
  <!-- Graph Dots -->
  <circle cx="180" cy="190" r="4" fill="#4f46e5"/>
  <circle cx="220" cy="170" r="4" fill="#4f46e5"/>
  <circle cx="260" cy="180" r="4" fill="#4f46e5"/>
  <circle cx="300" cy="150" r="4" fill="#4f46e5"/>
  <circle cx="340" cy="130" r="4" fill="#4f46e5"/>
  <circle cx="380" cy="160" r="4" fill="#4f46e5"/>
  <circle cx="420" cy="140" r="4" fill="#4f46e5"/>
  <circle cx="460" cy="120" r="4" fill="#4f46e5"/>
  <circle cx="500" cy="110" r="4" fill="#4f46e5"/>
  
  <circle cx="180" cy="190" r="4" fill="#0ea5e9"/>
  <circle cx="220" cy="180" r="4" fill="#0ea5e9"/>
  <circle cx="260" cy="190" r="4" fill="#0ea5e9"/>
  <circle cx="300" cy="170" r="4" fill="#0ea5e9"/>
  <circle cx="340" cy="160" r="4" fill="#0ea5e9"/>
  <circle cx="380" cy="180" r="4" fill="#0ea5e9"/>
  <circle cx="420" cy="170" r="4" fill="#0ea5e9"/>
  <circle cx="460" cy="150" r="4" fill="#0ea5e9"/>
  <circle cx="500" cy="140" r="4" fill="#0ea5e9"/>
  
  <!-- Stats Boxes -->
  <rect x="170" y="220" width="115" height="80" rx="5" fill="#f8fafc" stroke="#e2e8f0" stroke-width="1"/>
  <rect x="295" y="220" width="115" height="80" rx="5" fill="#f8fafc" stroke="#e2e8f0" stroke-width="1"/>
  <rect x="420" y="220" width="110" height="80" rx="5" fill="#f8fafc" stroke="#e2e8f0" stroke-width="1"/>
  
  <!-- Stats Icons -->
  <circle cx="190" cy="240" r="10" fill="#4f46e5" opacity="0.2"/>
  <circle cx="315" cy="240" r="10" fill="#0ea5e9" opacity="0.2"/>
  <circle cx="440" cy="240" r="10" fill="#8b5cf6" opacity="0.2"/>
  
  <!-- Stats Text Placeholders -->
  <rect x="210" y="235" width="60" height="10" rx="5" fill="#e2e8f0"/>
  <rect x="335" y="235" width="60" height="10" rx="5" fill="#e2e8f0"/>
  <rect x="460" y="235" width="60" height="10" rx="5" fill="#e2e8f0"/>
  
  <!-- Stats Numbers -->
  <rect x="180" y="260" width="40" height="15" rx="5" fill="#4f46e5" opacity="0.8"/>
  <rect x="305" y="260" width="40" height="15" rx="5" fill="#0ea5e9" opacity="0.8"/>
  <rect x="430" y="260" width="40" height="15" rx="5" fill="#8b5cf6" opacity="0.8"/>
  
  <!-- Stats Details -->
  <rect x="180" y="285" width="90" height="5" rx="2.5" fill="#e2e8f0"/>
  <rect x="305" y="285" width="90" height="5" rx="2.5" fill="#e2e8f0"/>
  <rect x="430" y="285" width="90" height="5" rx="2.5" fill="#e2e8f0"/>
  
  <!-- Social Media Icons -->
  <circle cx="525" cy="70" r="7" fill="#ffffff"/>
  <circle cx="505" cy="70" r="7" fill="#ffffff"/>
  <circle cx="485" cy="70" r="7" fill="#ffffff"/>
</svg>
